<svg xmlns="http://www.w3.org/2000/svg" width="168" height="44.918" viewBox="0 0 168 44.918"><g transform="translate(-10.937 -286.262)"><path d="M55.491,307.924l-10.143-5.886a1.036,1.036,0,0,1-.487-1.16l.814-3.124a1.037,1.037,0,0,0-1.319-1.248l-2.877.912a1.034,1.034,0,0,1-1.213-.469l-5.895-10.17a1.041,1.041,0,0,0-1.788-.018l-5.913,9.78a1.03,1.03,0,0,1-1.1.478l-3.523-.735a1.039,1.039,0,0,0-1.2,1.319l.991,3.248a1.039,1.039,0,0,1-.46,1.195l-9.931,5.886a1.034,1.034,0,0,0,.009,1.788l10.161,5.895a1.028,1.028,0,0,1,.469,1.195l-.982,3.231a1.04,1.04,0,0,0,1.213,1.319l3.275-.708a1.053,1.053,0,0,1,1.1.451l6.125,9.595a1.033,1.033,0,0,0,1.779-.053l5.461-9.71a1.036,1.036,0,0,1,1.16-.5l3.434.859a1.037,1.037,0,0,0,1.248-1.292l-1-3.425a1.049,1.049,0,0,1,.487-1.195l10.1-5.656A1.046,1.046,0,0,0,55.491,307.924Zm-7.364.912H33.5l6.045,6.045a.749.749,0,0,1,.115.9l-4.771,8.072a.747.747,0,0,1-1.39-.381v-14.64h0l-6.036,6.036a.75.75,0,0,1-.912.115l-8.063-4.762a.747.747,0,0,1,.381-1.39H33.5L27.45,302.79a.749.749,0,0,1-.115-.9l4.771-8.072a.747.747,0,0,1,1.39.381v14.64l6.036-6.045a.75.75,0,0,1,.912-.115l8.063,4.762A.752.752,0,0,1,48.127,308.836Z" transform="translate(0)"/><g transform="translate(72.724 297.32)"><path d="M709,423.523a11.225,11.225,0,1,1,11.223,11.418A11.249,11.249,0,0,1,709,423.523Zm3.142,0a8.09,8.09,0,1,0,8.072-8.072A8.157,8.157,0,0,0,712.142,423.523Z" transform="translate(-709 -412.203)"/><path d="M1066.779,425.837l4.541,7.391a1.646,1.646,0,0,1-.549,2.239,1.585,1.585,0,0,1-.841.23,1.7,1.7,0,0,1-1.4-.779l-5.381-8.816h-3.31v8.01a1.6,1.6,0,0,1-1.62,1.593,1.576,1.576,0,0,1-1.62-1.593V414.72a1.651,1.651,0,0,1,1.655-1.62h6.868a6.592,6.592,0,0,1,6.452,6.417A6.8,6.8,0,0,1,1066.779,425.837Zm1.593-6.284A3.3,3.3,0,0,0,1065,416.34h-5.16v6.514H1065A3.357,3.357,0,0,0,1068.372,419.552Z" transform="translate(-1025.833 -412.932)"/><path d="M1337.713,429.342a6.5,6.5,0,0,1-6.063,6.391h-8.63a1.6,1.6,0,0,1-1.62-1.62V414.72a1.651,1.651,0,0,1,1.655-1.62h6.258a6.46,6.46,0,0,1,4.895,10.506A6.53,6.53,0,0,1,1337.713,429.342Zm-8.656-13h-4.408v6.514h4.408a3.358,3.358,0,0,0,3.372-3.31A3.293,3.293,0,0,0,1329.056,416.34Zm5.443,13a3.38,3.38,0,0,0-3.239-3.24h-6.612v6.391h6.78A3.184,3.184,0,0,0,1334.5,429.342Z" transform="translate(-1267.195 -412.932)"/><path d="M1599.8,432.381V412.793a1.607,1.607,0,0,1,3.213,0v19.588a1.607,1.607,0,1,1-3.213,0Z" transform="translate(-1520.954 -411.2)"/><path d="M1754.411,429.456a6.858,6.858,0,0,1-2.009,4.443,7.075,7.075,0,0,1-5.125,1.947.382.382,0,0,1-.195-.035,9.3,9.3,0,0,1-5.319-1.593,7.264,7.264,0,0,1-2.107-2.337,1.737,1.737,0,0,1-.257-.876,1.62,1.62,0,0,1,1.62-1.62,1.548,1.548,0,0,1,1.461,1.009,4.8,4.8,0,0,0,1.2,1.266,6.343,6.343,0,0,0,3.47.974c3.859.062,4.054-3.142,4.054-3.178a3.163,3.163,0,0,0-1.266-2.239,6.384,6.384,0,0,0-3.31-.974c-1.788-.23-3.8-.451-5.452-2.142a5.942,5.942,0,0,1-1.46-6,6.551,6.551,0,0,1,5.027-4.505,7.45,7.45,0,0,1,1.947-.195,8.92,8.92,0,0,1,5.576,1.815,6.415,6.415,0,0,1,1.947,2.363,1.391,1.391,0,0,1,.195.743,1.6,1.6,0,0,1-1.584,1.593,1.576,1.576,0,0,1-1.487-.974h-.036a2.962,2.962,0,0,0-.938-1.168,6.037,6.037,0,0,0-3.726-1.168,3.642,3.642,0,0,0-1.23.1,3.5,3.5,0,0,0-2.629,2.363,2.673,2.673,0,0,0,.717,2.788c.814.814,1.85,1.009,3.532,1.2a9.177,9.177,0,0,1,4.895,1.62A6.475,6.475,0,0,1,1754.411,429.456Z" transform="translate(-1648.198 -413.205)"/></g></g></svg>